<svg width="37" height="39" viewBox="0 0 37 39" fill="none" xmlns="http://www.w3.org/2000/svg">
<ellipse cx="18.5" cy="19.5" rx="18.5" ry="19.5" fill="#5F9EA0"/>
<path d="M14.7993 23.3247C14.4331 24.0734 14.0465 24.7489 13.6396 25.3511C13.2409 25.9533 12.8177 26.4701 12.3701 26.9014C11.9307 27.3327 11.4709 27.6663 10.9907 27.9023C10.5106 28.1302 10.0142 28.2441 9.50146 28.2441C9.26546 28.2441 9.02539 28.1709 8.78125 28.0244C8.54525 27.8861 8.32959 27.6867 8.13428 27.4263C7.9471 27.1577 7.79655 26.8403 7.68262 26.4741C7.56055 26.0998 7.49951 25.6847 7.49951 25.229C7.49951 24.814 7.55648 24.3257 7.67041 23.7642C7.78434 23.1945 7.92676 22.6004 8.09766 21.9819C8.27669 21.3553 8.46794 20.7287 8.67139 20.1021C8.88298 19.4754 9.08236 18.8976 9.26953 18.3687C9.46484 17.8397 9.63574 17.388 9.78223 17.0137C9.92871 16.6312 10.0264 16.3748 10.0752 16.2446C10.2705 15.7401 10.5269 15.2599 10.8442 14.8042C11.1616 14.3485 11.5116 13.9253 11.894 13.5347C12.2765 13.1359 12.6753 12.7778 13.0903 12.4604C13.5135 12.1431 13.9285 11.8745 14.3354 11.6548C14.7424 11.4269 15.1289 11.252 15.4951 11.1299C15.8695 11.0078 16.195 10.9468 16.4717 10.9468C16.6914 10.9468 16.8704 11.0037 17.0088 11.1177C17.1553 11.2316 17.2692 11.3822 17.3506 11.5693C17.432 11.7565 17.4889 11.9722 17.5215 12.2163C17.554 12.4604 17.5703 12.7127 17.5703 12.9731C17.5703 13.3394 17.4645 13.6934 17.2529 14.0352C17.0413 14.3688 16.7931 14.6699 16.5083 14.9385C16.2316 15.1989 15.9549 15.4186 15.6782 15.5977C15.4015 15.7686 15.2021 15.8784 15.0801 15.9272L14.9946 15.7197C15.1167 15.5651 15.2225 15.3901 15.312 15.1948C15.4097 14.9995 15.491 14.7961 15.5562 14.5845C15.6294 14.3729 15.6823 14.1572 15.7148 13.9375C15.7555 13.7178 15.7759 13.5062 15.7759 13.3027C15.784 13.1644 15.7759 13.0301 15.7515 12.8999C15.7352 12.7697 15.7067 12.6517 15.666 12.5459C15.6253 12.4401 15.5684 12.3587 15.4951 12.3018C15.43 12.2367 15.3486 12.2041 15.251 12.2041C14.9499 12.2041 14.6366 12.3709 14.311 12.7046C13.9937 13.0301 13.6763 13.4696 13.3589 14.0229C13.0496 14.5763 12.7445 15.2111 12.4434 15.9272C12.1423 16.6434 11.8574 17.388 11.5889 18.1611C11.3203 18.9342 11.0721 19.7074 10.8442 20.4805C10.6164 21.2536 10.417 21.9738 10.2461 22.6411C10.0833 23.3084 9.95312 23.8944 9.85547 24.3989C9.75781 24.9035 9.70492 25.2697 9.69678 25.4976C9.69678 25.6359 9.71712 25.7824 9.75781 25.937C9.7985 26.0916 9.85547 26.2381 9.92871 26.3765C10.002 26.5067 10.0874 26.6165 10.1851 26.7061C10.2909 26.7874 10.4048 26.8281 10.5269 26.8281C10.7791 26.8281 11.0558 26.7508 11.3569 26.5962C11.658 26.4416 11.9714 26.2096 12.2969 25.9004C12.6305 25.5911 12.9683 25.2005 13.3101 24.7285C13.6519 24.2565 13.9896 23.7072 14.3232 23.0806L14.7993 23.3247ZM27.2505 13.022C27.2505 12.9569 27.2301 12.8796 27.1895 12.79C27.1488 12.7005 27.0959 12.6191 27.0308 12.5459C26.9738 12.4645 26.9128 12.3953 26.8477 12.3384C26.7826 12.2814 26.7256 12.2529 26.6768 12.2529C26.5465 12.2529 26.4041 12.2977 26.2495 12.3872C26.103 12.4767 25.9769 12.554 25.8711 12.6191L25.7246 12.375C25.8874 12.2285 26.0623 12.078 26.2495 11.9233C26.4448 11.7687 26.6361 11.6304 26.8232 11.5083C27.0186 11.3781 27.2057 11.2764 27.3848 11.2031C27.5638 11.1217 27.7184 11.0811 27.8486 11.0811C28.1253 11.0811 28.3776 11.1706 28.6055 11.3496C28.8333 11.5286 29.0246 11.7321 29.1792 11.96C29.342 12.1797 29.464 12.3953 29.5454 12.6069C29.6349 12.8185 29.6797 12.9569 29.6797 13.022C29.6797 13.2091 29.6227 13.555 29.5088 14.0596C29.403 14.556 29.2321 15.1582 28.9961 15.8662C28.7601 16.5661 28.4631 17.3392 28.105 18.1855C27.7469 19.0238 27.3197 19.8783 26.8232 20.749C26.335 21.6198 25.7734 22.4743 25.1387 23.3125C24.512 24.1426 23.8081 24.8994 23.0269 25.583C22.2456 26.2666 21.387 26.8444 20.4512 27.3164C19.5153 27.7884 18.498 28.0977 17.3994 28.2441L17.1309 27.9756C17.2448 27.6257 17.4035 27.1455 17.6069 26.5352C17.8185 25.9167 18.0505 25.2209 18.3027 24.4478C18.5632 23.6665 18.8358 22.8364 19.1206 21.9575C19.4136 21.0705 19.7025 20.1875 19.9873 19.3086C20.2721 18.4215 20.5448 17.5671 20.8052 16.7451C21.0737 15.9232 21.3097 15.1826 21.5132 14.5234C21.7166 13.8643 21.8794 13.319 22.0015 12.8877C22.1317 12.4482 22.2049 12.1756 22.2212 12.0698C22.2212 11.9803 22.1968 11.8989 22.1479 11.8257C21.8468 11.8501 21.5498 11.8867 21.2568 11.9355C20.9639 11.9844 20.7035 12.0495 20.4756 12.1309C20.3698 12.1715 20.2559 12.2407 20.1338 12.3384C20.0117 12.4279 19.8978 12.5418 19.792 12.6802C19.6862 12.8185 19.5967 12.9731 19.5234 13.144C19.4583 13.3068 19.4258 13.4736 19.4258 13.6445C19.4258 13.7503 19.4339 13.8846 19.4502 14.0474C19.4665 14.202 19.499 14.3607 19.5479 14.5234L19.4014 14.6699C18.9863 14.3688 18.6567 14.0555 18.4126 13.73C18.1685 13.3963 18.0464 13.0871 18.0464 12.8022C18.0464 12.6395 18.0993 12.4604 18.2051 12.2651C18.319 12.0698 18.4574 11.8908 18.6201 11.728C18.7829 11.5571 18.9578 11.4147 19.145 11.3008C19.3322 11.1868 19.499 11.1299 19.6455 11.1299C20.1501 11.1299 20.7035 11.1502 21.3057 11.1909C21.9079 11.2316 22.5467 11.252 23.2222 11.252C23.3687 11.252 23.4989 11.252 23.6128 11.252C23.7267 11.252 23.8325 11.252 23.9302 11.252C24.036 11.2438 24.1418 11.2397 24.2476 11.2397C24.3534 11.2316 24.4795 11.2194 24.626 11.2031L24.6992 11.3252C24.5527 11.7646 24.3778 12.2896 24.1743 12.8999C23.979 13.5021 23.7674 14.1532 23.5396 14.853C23.3117 15.5529 23.0757 16.2894 22.8315 17.0625C22.5874 17.8275 22.3433 18.5965 22.0991 19.3696C21.855 20.1346 21.6149 20.8874 21.3789 21.6279C21.151 22.3685 20.9354 23.0643 20.7319 23.7153C20.5366 24.3582 20.3576 24.9401 20.1948 25.4609C20.0321 25.9818 19.9019 26.4049 19.8042 26.7305C20.5936 26.3643 21.3219 25.8516 21.9893 25.1924C22.6647 24.5332 23.2791 23.7926 23.8325 22.9707C24.3859 22.1406 24.8742 21.2658 25.2974 20.3462C25.7205 19.4185 26.0745 18.507 26.3594 17.6118C26.6523 16.7166 26.8721 15.8703 27.0186 15.0728C27.1732 14.2752 27.2505 13.5916 27.2505 13.022Z" fill="#14293D"/>
</svg>
